<?xml version="1.0" encoding="utf-8"?>
<svg xmlns="http://www.w3.org/2000/svg" xmlns:xlink="http://www.w3.org/1999/xlink" style="margin: auto; background: rgb(241, 242, 243); display: block; z-index: 1; position: relative; shape-rendering: auto;" width="1411" height="1007" preserveAspectRatio="xMidYMid" viewBox="0 0 1411 1007">
<g transform="translate(705.5,503.5) scale(1,1) translate(-705.5,-503.5)"><defs>
<linearGradient id="lg-0.7413818078944239" x1="0" x2="0" y1="0" y2="1">
  <stop stop-color="#050f2c" offset="0.5"></stop>
  <stop stop-color="#050f2c" offset="0.75"></stop>
  <stop stop-color="#050f2c" offset="1"></stop>
</linearGradient>
<linearGradient id="fg-lg-0.7413818078944239" x1="0" x2="0" y1="0" y2="1">
  <stop stop-color="#050f2c" stop-opacity="1" offset="0.5"></stop>
  <stop stop-color="#050f2c" stop-opacity="0.66" offset="0.75"></stop>
  <stop stop-color="#050f2c" stop-opacity="0" offset="1"></stop>
</linearGradient>
<style type="text/css">
  path { fill: none; stroke: #c4dff6; stroke-width: 2px }
</style>
</defs>
<rect x="0" y="0" width="1411" height="1007" fill="url(#lg-0.7413818078944239)"></rect><path d="M0 503.5 L-9877 1007"></path><path d="M7.055 503.5 L-9771.175 1007"></path><path d="M14.11 503.5 L-9665.35 1007"></path><path d="M21.165 503.5 L-9559.525 1007"></path><path d="M28.22 503.5 L-9453.7 1007"></path><path d="M35.275 503.5 L-9347.875 1007"></path><path d="M42.33 503.5 L-9242.05 1007"></path><path d="M49.385 503.5 L-9136.225 1007"></path><path d="M56.44 503.5 L-9030.4 1007"></path><path d="M63.495 503.5 L-8924.575 1007"></path><path d="M70.55 503.5 L-8818.75 1007"></path><path d="M77.605 503.5 L-8712.925 1007"></path><path d="M84.66 503.5 L-8607.1 1007"></path><path d="M91.715 503.5 L-8501.275 1007"></path><path d="M98.77 503.5 L-8395.45 1007"></path><path d="M105.825 503.5 L-8289.625 1007"></path><path d="M112.88 503.5 L-8183.8 1007"></path><path d="M119.935 503.5 L-8077.975 1007"></path><path d="M126.99 503.5 L-7972.15 1007"></path><path d="M134.045 503.5 L-7866.325 1007"></path><path d="M141.1 503.5 L-7760.5 1007"></path><path d="M148.155 503.5 L-7654.675 1007"></path><path d="M155.21 503.5 L-7548.85 1007"></path><path d="M162.265 503.5 L-7443.025 1007"></path><path d="M169.32 503.5 L-7337.2 1007"></path><path d="M176.375 503.5 L-7231.375 1007"></path><path d="M183.43 503.5 L-7125.55 1007"></path><path d="M190.485 503.5 L-7019.725 1007"></path><path d="M197.54 503.5 L-6913.9 1007"></path><path d="M204.595 503.5 L-6808.075 1007"></path><path d="M211.65 503.5 L-6702.25 1007"></path><path d="M218.705 503.5 L-6596.425 1007"></path><path d="M225.76 503.5 L-6490.6 1007"></path><path d="M232.815 503.5 L-6384.775 1007"></path><path d="M239.87 503.5 L-6278.95 1007"></path><path d="M246.925 503.5 L-6173.125 1007"></path><path d="M253.98 503.5 L-6067.3 1007"></path><path d="M261.035 503.5 L-5961.475 1007"></path><path d="M268.09 503.5 L-5855.65 1007"></path><path d="M275.145 503.5 L-5749.825 1007"></path><path d="M282.2 503.5 L-5644 1007"></path><path d="M289.255 503.5 L-5538.175 1007"></path><path d="M296.31 503.5 L-5432.35 1007"></path><path d="M303.365 503.5 L-5326.525 1007"></path><path d="M310.42 503.5 L-5220.7 1007"></path><path d="M317.475 503.5 L-5114.875 1007"></path><path d="M324.53 503.5 L-5009.05 1007"></path><path d="M331.585 503.5 L-4903.225 1007"></path><path d="M338.64 503.5 L-4797.4 1007"></path><path d="M345.695 503.5 L-4691.575 1007"></path><path d="M352.75 503.5 L-4585.75 1007"></path><path d="M359.805 503.5 L-4479.925 1007"></path><path d="M366.86 503.5 L-4374.1 1007"></path><path d="M373.915 503.5 L-4268.275 1007"></path><path d="M380.97 503.5 L-4162.45 1007"></path><path d="M388.025 503.5 L-4056.625 1007"></path><path d="M395.08 503.5 L-3950.8 1007"></path><path d="M402.135 503.5 L-3844.9750000000004 1007"></path><path d="M409.19 503.5 L-3739.1499999999996 1007"></path><path d="M416.245 503.5 L-3633.325 1007"></path><path d="M423.3 503.5 L-3527.5 1007"></path><path d="M430.355 503.5 L-3421.675 1007"></path><path d="M437.41 503.5 L-3315.8500000000004 1007"></path><path d="M444.465 503.5 L-3210.0249999999996 1007"></path><path d="M451.52 503.5 L-3104.2 1007"></path><path d="M458.575 503.5 L-2998.375 1007"></path><path d="M465.63 503.5 L-2892.55 1007"></path><path d="M472.685 503.5 L-2786.7250000000004 1007"></path><path d="M479.74 503.5 L-2680.8999999999996 1007"></path><path d="M486.795 503.5 L-2575.075 1007"></path><path d="M493.85 503.5 L-2469.25 1007"></path><path d="M500.905 503.5 L-2363.425 1007"></path><path d="M507.96 503.5 L-2257.6000000000004 1007"></path><path d="M515.015 503.5 L-2151.7749999999996 1007"></path><path d="M522.07 503.5 L-2045.9499999999998 1007"></path><path d="M529.125 503.5 L-1940.125 1007"></path><path d="M536.18 503.5 L-1834.3000000000002 1007"></path><path d="M543.235 503.5 L-1728.4750000000004 1007"></path><path d="M550.29 503.5 L-1622.6499999999996 1007"></path><path d="M557.345 503.5 L-1516.8250000000007 1007"></path><path d="M564.4 503.5 L-1411 1007"></path><path d="M571.455 503.5 L-1305.1749999999993 1007"></path><path d="M578.51 503.5 L-1199.3500000000004 1007"></path><path d="M585.565 503.5 L-1093.5249999999996 1007"></path><path d="M592.62 503.5 L-987.7000000000007 1007"></path><path d="M599.675 503.5 L-881.875 1007"></path><path d="M606.73 503.5 L-776.0499999999993 1007"></path><path d="M613.785 503.5 L-670.2250000000004 1007"></path><path d="M620.84 503.5 L-564.3999999999996 1007"></path><path d="M627.895 503.5 L-458.5750000000007 1007"></path><path d="M634.95 503.5 L-352.75 1007"></path><path d="M642.005 503.5 L-246.92499999999927 1007"></path><path d="M649.06 503.5 L-141.10000000000036 1007"></path><path d="M656.115 503.5 L-35.274999999999636 1007"></path><path d="M663.17 503.5 L70.54999999999927 1007"></path><path d="M670.225 503.5 L176.375 1007"></path><path d="M677.28 503.5 L282.2000000000007 1007"></path><path d="M684.335 503.5 L388.02499999999964 1007"></path><path d="M691.39 503.5 L493.85000000000036 1007"></path><path d="M698.445 503.5 L599.6749999999993 1007"></path><path d="M705.5 503.5 L705.5 1007"></path><path d="M712.555 503.5 L811.3250000000007 1007"></path><path d="M719.61 503.5 L917.1499999999996 1007"></path><path d="M726.665 503.5 L1022.9750000000004 1007"></path><path d="M733.72 503.5 L1128.7999999999993 1007"></path><path d="M740.775 503.5 L1234.625 1007"></path><path d="M747.83 503.5 L1340.4500000000007 1007"></path><path d="M754.885 503.5 L1446.2749999999996 1007"></path><path d="M761.94 503.5 L1552.1000000000004 1007"></path><path d="M768.995 503.5 L1657.9249999999993 1007"></path><path d="M776.05 503.5 L1763.75 1007"></path><path d="M783.105 503.5 L1869.5750000000007 1007"></path><path d="M790.16 503.5 L1975.3999999999996 1007"></path><path d="M797.215 503.5 L2081.2250000000004 1007"></path><path d="M804.27 503.5 L2187.0499999999993 1007"></path><path d="M811.325 503.5 L2292.875 1007"></path><path d="M818.38 503.5 L2398.7000000000007 1007"></path><path d="M825.435 503.5 L2504.5249999999996 1007"></path><path d="M832.49 503.5 L2610.3500000000004 1007"></path><path d="M839.545 503.5 L2716.1749999999993 1007"></path><path d="M846.6 503.5 L2822 1007"></path><path d="M853.655 503.5 L2927.8250000000007 1007"></path><path d="M860.71 503.5 L3033.6499999999996 1007"></path><path d="M867.765 503.5 L3139.4750000000004 1007"></path><path d="M874.82 503.5 L3245.2999999999993 1007"></path><path d="M881.875 503.5 L3351.125 1007"></path><path d="M888.93 503.5 L3456.9500000000007 1007"></path><path d="M895.985 503.5 L3562.7749999999996 1007"></path><path d="M903.04 503.5 L3668.6000000000004 1007"></path><path d="M910.095 503.5 L3774.4249999999993 1007"></path><path d="M917.15 503.5 L3880.25 1007"></path><path d="M924.205 503.5 L3986.0750000000007 1007"></path><path d="M931.26 503.5 L4091.8999999999996 1007"></path><path d="M938.315 503.5 L4197.725 1007"></path><path d="M945.37 503.5 L4303.549999999999 1007"></path><path d="M952.425 503.5 L4409.375 1007"></path><path d="M959.48 503.5 L4515.200000000001 1007"></path><path d="M966.535 503.5 L4621.025 1007"></path><path d="M973.59 503.5 L4726.85 1007"></path><path d="M980.645 503.5 L4832.674999999999 1007"></path><path d="M987.7 503.5 L4938.5 1007"></path><path d="M994.755 503.5 L5044.325000000001 1007"></path><path d="M1001.81 503.5 L5150.15 1007"></path><path d="M1008.865 503.5 L5255.975 1007"></path><path d="M1015.92 503.5 L5361.799999999999 1007"></path><path d="M1022.975 503.5 L5467.625 1007"></path><path d="M1030.03 503.5 L5573.450000000001 1007"></path><path d="M1037.085 503.5 L5679.275 1007"></path><path d="M1044.14 503.5 L5785.1 1007"></path><path d="M1051.195 503.5 L5890.924999999999 1007"></path><path d="M1058.25 503.5 L5996.75 1007"></path><path d="M1065.305 503.5 L6102.575000000001 1007"></path><path d="M1072.36 503.5 L6208.4 1007"></path><path d="M1079.415 503.5 L6314.225 1007"></path><path d="M1086.47 503.5 L6420.049999999999 1007"></path><path d="M1093.525 503.5 L6525.875 1007"></path><path d="M1100.58 503.5 L6631.700000000001 1007"></path><path d="M1107.635 503.5 L6737.5250000000015 1007"></path><path d="M1114.69 503.5 L6843.3499999999985 1007"></path><path d="M1121.745 503.5 L6949.174999999999 1007"></path><path d="M1128.8 503.5 L7055 1007"></path><path d="M1135.855 503.5 L7160.825000000001 1007"></path><path d="M1142.91 503.5 L7266.6500000000015 1007"></path><path d="M1149.965 503.5 L7372.4749999999985 1007"></path><path d="M1157.02 503.5 L7478.299999999999 1007"></path><path d="M1164.075 503.5 L7584.125 1007"></path><path d="M1171.13 503.5 L7689.950000000001 1007"></path><path d="M1178.185 503.5 L7795.7750000000015 1007"></path><path d="M1185.24 503.5 L7901.5999999999985 1007"></path><path d="M1192.295 503.5 L8007.424999999999 1007"></path><path d="M1199.35 503.5 L8113.25 1007"></path><path d="M1206.405 503.5 L8219.075 1007"></path><path d="M1213.46 503.5 L8324.900000000001 1007"></path><path d="M1220.515 503.5 L8430.724999999999 1007"></path><path d="M1227.57 503.5 L8536.55 1007"></path><path d="M1234.625 503.5 L8642.375 1007"></path><path d="M1241.68 503.5 L8748.2 1007"></path><path d="M1248.735 503.5 L8854.025000000001 1007"></path><path d="M1255.79 503.5 L8959.849999999999 1007"></path><path d="M1262.845 503.5 L9065.675 1007"></path><path d="M1269.9 503.5 L9171.5 1007"></path><path d="M1276.955 503.5 L9277.325 1007"></path><path d="M1284.01 503.5 L9383.150000000001 1007"></path><path d="M1291.065 503.5 L9488.974999999999 1007"></path><path d="M1298.12 503.5 L9594.8 1007"></path><path d="M1305.175 503.5 L9700.625 1007"></path><path d="M1312.23 503.5 L9806.45 1007"></path><path d="M1319.285 503.5 L9912.275000000001 1007"></path><path d="M1326.34 503.5 L10018.099999999999 1007"></path><path d="M1333.395 503.5 L10123.925 1007"></path><path d="M1340.45 503.5 L10229.75 1007"></path><path d="M1347.505 503.5 L10335.575 1007"></path><path d="M1354.56 503.5 L10441.400000000001 1007"></path><path d="M1361.615 503.5 L10547.224999999999 1007"></path><path d="M1368.67 503.5 L10653.05 1007"></path><path d="M1375.725 503.5 L10758.875 1007"></path><path d="M1382.78 503.5 L10864.7 1007"></path><path d="M1389.835 503.5 L10970.525000000001 1007"></path><path d="M1396.89 503.5 L11076.349999999999 1007"></path><path d="M1403.945 503.5 L11182.175 1007"></path><path d="M1411 503.5 L11288 1007"></path><g>
<path d="M0 503.5 L1411 503.5"></path>
<animateTransform attributeName="transform" type="translate" repeatCount="indefinite" calcMode="linear" keyTimes="0;1" values="0 0;0 1.6112" begin="0s" dur="0.35842293906810035s"></animateTransform>

</g><g>
<path d="M0 505.1112 L1411 505.1112"></path>
<animateTransform attributeName="transform" type="translate" repeatCount="indefinite" calcMode="linear" keyTimes="0;1" values="0 0;0 3.2223999999999995" begin="0s" dur="0.35842293906810035s"></animateTransform>

</g><g>
<path d="M0 508.3336 L1411 508.3336"></path>
<animateTransform attributeName="transform" type="translate" repeatCount="indefinite" calcMode="linear" keyTimes="0;1" values="0 0;0 4.8336" begin="0s" dur="0.35842293906810035s"></animateTransform>

</g><g>
<path d="M0 513.1672 L1411 513.1672"></path>
<animateTransform attributeName="transform" type="translate" repeatCount="indefinite" calcMode="linear" keyTimes="0;1" values="0 0;0 6.444799999999999" begin="0s" dur="0.35842293906810035s"></animateTransform>

</g><g>
<path d="M0 519.612 L1411 519.612"></path>
<animateTransform attributeName="transform" type="translate" repeatCount="indefinite" calcMode="linear" keyTimes="0;1" values="0 0;0 8.056" begin="0s" dur="0.35842293906810035s"></animateTransform>

</g><g>
<path d="M0 527.668 L1411 527.668"></path>
<animateTransform attributeName="transform" type="translate" repeatCount="indefinite" calcMode="linear" keyTimes="0;1" values="0 0;0 9.6672" begin="0s" dur="0.35842293906810035s"></animateTransform>

</g><g>
<path d="M0 537.3352 L1411 537.3352"></path>
<animateTransform attributeName="transform" type="translate" repeatCount="indefinite" calcMode="linear" keyTimes="0;1" values="0 0;0 11.2784" begin="0s" dur="0.35842293906810035s"></animateTransform>

</g><g>
<path d="M0 548.6136 L1411 548.6136"></path>
<animateTransform attributeName="transform" type="translate" repeatCount="indefinite" calcMode="linear" keyTimes="0;1" values="0 0;0 12.8896" begin="0s" dur="0.35842293906810035s"></animateTransform>

</g><g>
<path d="M0 561.5032 L1411 561.5032"></path>
<animateTransform attributeName="transform" type="translate" repeatCount="indefinite" calcMode="linear" keyTimes="0;1" values="0 0;0 14.500799999999998" begin="0s" dur="0.35842293906810035s"></animateTransform>

</g><g>
<path d="M0 576.004 L1411 576.004"></path>
<animateTransform attributeName="transform" type="translate" repeatCount="indefinite" calcMode="linear" keyTimes="0;1" values="0 0;0 16.112" begin="0s" dur="0.35842293906810035s"></animateTransform>

</g><g>
<path d="M0 592.116 L1411 592.116"></path>
<animateTransform attributeName="transform" type="translate" repeatCount="indefinite" calcMode="linear" keyTimes="0;1" values="0 0;0 17.7232" begin="0s" dur="0.35842293906810035s"></animateTransform>

</g><g>
<path d="M0 609.8392 L1411 609.8392"></path>
<animateTransform attributeName="transform" type="translate" repeatCount="indefinite" calcMode="linear" keyTimes="0;1" values="0 0;0 19.3344" begin="0s" dur="0.35842293906810035s"></animateTransform>

</g><g>
<path d="M0 629.1736 L1411 629.1736"></path>
<animateTransform attributeName="transform" type="translate" repeatCount="indefinite" calcMode="linear" keyTimes="0;1" values="0 0;0 20.9456" begin="0s" dur="0.35842293906810035s"></animateTransform>

</g><g>
<path d="M0 650.1192 L1411 650.1192"></path>
<animateTransform attributeName="transform" type="translate" repeatCount="indefinite" calcMode="linear" keyTimes="0;1" values="0 0;0 22.5568" begin="0s" dur="0.35842293906810035s"></animateTransform>

</g><g>
<path d="M0 672.6759999999999 L1411 672.6759999999999"></path>
<animateTransform attributeName="transform" type="translate" repeatCount="indefinite" calcMode="linear" keyTimes="0;1" values="0 0;0 24.168" begin="0s" dur="0.35842293906810035s"></animateTransform>

</g><g>
<path d="M0 696.8439999999999 L1411 696.8439999999999"></path>
<animateTransform attributeName="transform" type="translate" repeatCount="indefinite" calcMode="linear" keyTimes="0;1" values="0 0;0 25.7792" begin="0s" dur="0.35842293906810035s"></animateTransform>

</g><g>
<path d="M0 722.6231999999999 L1411 722.6231999999999"></path>
<animateTransform attributeName="transform" type="translate" repeatCount="indefinite" calcMode="linear" keyTimes="0;1" values="0 0;0 27.3904" begin="0s" dur="0.35842293906810035s"></animateTransform>

</g><g>
<path d="M0 750.0135999999999 L1411 750.0135999999999"></path>
<animateTransform attributeName="transform" type="translate" repeatCount="indefinite" calcMode="linear" keyTimes="0;1" values="0 0;0 29.0016" begin="0s" dur="0.35842293906810035s"></animateTransform>

</g><g>
<path d="M0 779.0151999999999 L1411 779.0151999999999"></path>
<animateTransform attributeName="transform" type="translate" repeatCount="indefinite" calcMode="linear" keyTimes="0;1" values="0 0;0 30.612799999999996" begin="0s" dur="0.35842293906810035s"></animateTransform>

</g><g>
<path d="M0 809.6279999999999 L1411 809.6279999999999"></path>
<animateTransform attributeName="transform" type="translate" repeatCount="indefinite" calcMode="linear" keyTimes="0;1" values="0 0;0 32.224" begin="0s" dur="0.35842293906810035s"></animateTransform>

</g><g>
<path d="M0 841.852 L1411 841.852"></path>
<animateTransform attributeName="transform" type="translate" repeatCount="indefinite" calcMode="linear" keyTimes="0;1" values="0 0;0 33.83519999999999" begin="0s" dur="0.35842293906810035s"></animateTransform>

</g><g>
<path d="M0 875.6872 L1411 875.6872"></path>
<animateTransform attributeName="transform" type="translate" repeatCount="indefinite" calcMode="linear" keyTimes="0;1" values="0 0;0 35.44639999999999" begin="0s" dur="0.35842293906810035s"></animateTransform>

</g><g>
<path d="M0 911.1336 L1411 911.1336"></path>
<animateTransform attributeName="transform" type="translate" repeatCount="indefinite" calcMode="linear" keyTimes="0;1" values="0 0;0 37.05759999999999" begin="0s" dur="0.35842293906810035s"></animateTransform>

</g><g>
<path d="M0 948.1912 L1411 948.1912"></path>
<animateTransform attributeName="transform" type="translate" repeatCount="indefinite" calcMode="linear" keyTimes="0;1" values="0 0;0 38.66879999999998" begin="0s" dur="0.35842293906810035s"></animateTransform>

</g><g>
<path d="M0 986.86 L1411 986.86"></path>
<animateTransform attributeName="transform" type="translate" repeatCount="indefinite" calcMode="linear" keyTimes="0;1" values="0 0;0 40.27999999999998" begin="0s" dur="0.35842293906810035s"></animateTransform>

</g><rect x="0" y="0" width="1411" height="1007" fill="url(#fg-lg-0.7413818078944239)"></rect></g>
</svg>